<svg width="51" height="63" viewBox="0 0 51 63" fill="none" xmlns="http://www.w3.org/2000/svg">
<path d="M15.5427 16.0207C11.8936 16.0207 8.92376 18.8192 8.92376 22.2572C8.92376 25.6951 11.8933 28.4939 15.5427 28.4939C19.1921 28.4939 22.1646 25.6961 22.1646 22.2572C22.1646 18.8182 19.1937 16.0207 15.5427 16.0207Z" fill="#003A5D"/>
<path d="M38.9814 26.3242H28.142C26.5048 31.5545 21.2546 35.3411 15.4295 35.4096H9.96772V60.3927H20.567V44.8789L21.1274 44.7252L21.7364 44.5606C30.6879 42.2042 37.5189 34.9358 38.9814 26.3242Z" fill="#003A5D"/>
<path d="M15.5426 9.25443C21.475 9.25443 26.9152 13.0419 28.7046 18.3372H38.794C36.7999 7.98827 26.76 0 15.5426 0C9.79743 0 4.3089 1.95133 0 5.51078L6.96914 12.0781C9.40178 10.2529 12.4189 9.25443 15.5426 9.25443Z" fill="#6CC049"/>
</svg>
